<svg width="126" height="126" viewBox="0 0 126 126" fill="none" xmlns="http://www.w3.org/2000/svg">
<g clip-path="url(#clip0_118_493)">
<path d="M94.5 31.5H84C84 19.8975 74.6025 10.5 63 10.5C51.3975 10.5 42 19.8975 42 31.5H31.5C25.725 31.5 21 36.225 21 42V105C21 110.775 25.725 115.5 31.5 115.5H94.5C100.275 115.5 105 110.775 105 105V42C105 36.225 100.275 31.5 94.5 31.5ZM52.5 52.5C52.5 55.3875 50.1375 57.75 47.25 57.75C44.3625 57.75 42 55.3875 42 52.5V42H52.5V52.5ZM63 21C68.775 21 73.5 25.725 73.5 31.5H52.5C52.5 25.725 57.225 21 63 21ZM84 52.5C84 55.3875 81.6375 57.75 78.75 57.75C75.8625 57.75 73.5 55.3875 73.5 52.5V42H84V52.5Z" fill="#8CB2AF"/>
</g>
<defs>
<clipPath id="clip0_118_493">
<rect width="126" height="126" fill="white"/>
</clipPath>
</defs>
</svg>
