<svg width="126" height="126" viewBox="0 0 126 126" fill="none" xmlns="http://www.w3.org/2000/svg">
<path opacity="0.2" d="M102.375 63V98.4375C102.375 99.4818 101.96 100.483 101.222 101.222C100.483 101.96 99.4818 102.375 98.4375 102.375H27.5625C26.5182 102.375 25.5167 101.96 24.7783 101.222C24.0398 100.483 23.625 99.4818 23.625 98.4375V63H102.375Z" fill="#8CB2AF"/>
<path d="M106.312 35.4375H89.0466C89.2385 35.2751 89.4354 35.1176 89.6224 34.9453C91.1172 33.6173 92.322 31.9951 93.1612 30.1802C94.0005 28.3653 94.4563 26.3968 94.5 24.3977C94.5647 22.2108 94.1817 20.0337 93.3745 18.0002C92.5674 15.9666 91.3531 14.1195 89.8063 12.5722C88.2594 11.025 86.4127 9.81014 84.3794 9.00238C82.3461 8.19462 80.1691 7.81097 77.9822 7.87497C75.9823 7.91805 74.0128 8.37349 72.197 9.21277C70.3813 10.0521 68.7583 11.2571 67.4297 12.7526C65.5913 14.8832 64.0967 17.2878 63 19.8794C61.9033 17.2878 60.4087 14.8832 58.5703 12.7526C57.2417 11.2571 55.6187 10.0521 53.803 9.21277C51.9872 8.37349 50.0177 7.91805 48.0178 7.87497C45.8309 7.81097 43.6539 8.19462 41.6206 9.00238C39.5873 9.81014 37.7406 11.025 36.1937 12.5722C34.6469 14.1195 33.4326 15.9666 32.6255 18.0002C31.8183 20.0337 31.4353 22.2108 31.5 24.3977C31.5437 26.3968 31.9995 28.3653 32.8388 30.1802C33.678 31.9951 34.8828 33.6173 36.3776 34.9453C36.5646 35.1077 36.7615 35.2652 36.9534 35.4375H19.6875C17.5989 35.4375 15.5959 36.2672 14.119 37.744C12.6422 39.2209 11.8125 41.2239 11.8125 43.3125V59.0625C11.8125 61.1511 12.6422 63.1541 14.119 64.6309C15.5959 66.1078 17.5989 66.9375 19.6875 66.9375V98.4375C19.6875 100.526 20.5172 102.529 21.994 104.006C23.4709 105.483 25.4739 106.312 27.5625 106.312H98.4375C100.526 106.312 102.529 105.483 104.006 104.006C105.483 102.529 106.312 100.526 106.312 98.4375V66.9375C108.401 66.9375 110.404 66.1078 111.881 64.6309C113.358 63.1541 114.188 61.1511 114.188 59.0625V43.3125C114.188 41.2239 113.358 39.2209 111.881 37.744C110.404 36.2672 108.401 35.4375 106.312 35.4375ZM73.3359 17.9697C73.9594 17.2813 74.7184 16.7291 75.5654 16.348C76.4124 15.9668 77.3291 15.7649 78.2578 15.7549H78.499C79.5876 15.7617 80.6638 15.9857 81.6647 16.4138C82.6656 16.8419 83.5709 17.4654 84.3277 18.2479C85.0845 19.0304 85.6776 19.956 86.072 20.9706C86.4665 21.9852 86.6545 23.0684 86.625 24.1565C86.615 25.0853 86.4131 26.0019 86.0319 26.8489C85.6508 27.6959 85.0986 28.455 84.4102 29.0784C79.7393 33.2128 71.9873 34.6697 67.1836 35.1815C67.7742 29.9693 69.3984 22.3945 73.3359 17.9697ZM41.7916 18.1469C43.3171 16.6216 45.3831 15.7602 47.5404 15.75H47.7816C48.7103 15.76 49.627 15.9619 50.4739 16.3431C51.3209 16.7242 52.08 17.2763 52.7034 17.9648C56.8329 22.6308 58.2898 30.3679 58.8016 35.152C54.0176 34.6598 46.2804 33.1833 41.6145 29.0538C40.926 28.4304 40.3738 27.6713 39.9927 26.8243C39.6115 25.9773 39.4096 25.0607 39.3996 24.1319C39.3691 23.0257 39.5636 21.9247 39.9714 20.8959C40.3792 19.8671 40.9918 18.9319 41.772 18.1469H41.7916ZM19.6875 43.3125H59.0625V59.0625H19.6875V43.3125ZM27.5625 66.9375H59.0625V98.4375H27.5625V66.9375ZM98.4375 98.4375H66.9375V66.9375H98.4375V98.4375ZM106.312 59.0625H66.9375V43.3125H106.312V59.0625Z" fill="#8CB2AF"/>
</svg>
